<?xml version="1.0" encoding="UTF-8"?>
<!-- Created with Inkscape (http://www.inkscape.org/) -->
<svg width="132.28mm" height="98.082mm" version="1.1" viewBox="0 0 132.28 98.082" xmlns="http://www.w3.org/2000/svg" xmlns:cc="http://creativecommons.org/ns#" xmlns:dc="http://purl.org/dc/elements/1.1/" xmlns:rdf="http://www.w3.org/1999/02/22-rdf-syntax-ns#">
 <metadata>
  <rdf:RDF>
   <cc:Work rdf:about="">
    <dc:format>image/svg+xml</dc:format>
    <dc:type rdf:resource="http://purl.org/dc/dcmitype/StillImage"/>
    <dc:title/>
   </cc:Work>
  </rdf:RDF>
 </metadata>
 <g transform="translate(-35.957 -92.408)">
  <g transform="matrix(.98585 0 0 .98491 -211.19 -59.158)" style="stroke-width:1.0148">
   <path d="m281.25 167.63-5.5529 20.619-16.659 61.858 72.139-0.1057 11.106-41.238 5.5529-20.619-20.611 0.0302-11.106 41.238-30.917 0.0453 11.106-41.238 5.1528-8e-3 5.5529-20.619zm27.097-4.9864-16.659 61.858 20.611-0.0302 5.5529-20.619 5.5529-20.619 30.917-0.0453-11.106 41.238-5.1528 8e-3 -5.5529 20.619 25.764-0.0377 5.5529-20.619 16.659-61.858-51.528 0.0755z" style="fill:#e6e6e6;paint-order:normal;stroke-linecap:square;stroke-width:6.7127;stroke:#333"/>
   <path d="m277.28 162.34-5.5529 20.619-16.659 61.858 72.139-0.1057 11.106-41.238 5.5529-20.619-20.611 0.0302-11.106 41.238-30.917 0.0453 11.106-41.238 5.1528-8e-3 5.5529-20.619zm27.097-4.9864-16.659 61.858 20.611-0.0302 5.5529-20.619 5.5529-20.619 30.917-0.0453-11.106 41.238-5.1528 8e-3 -5.5529 20.619 25.764-0.0377 5.5529-20.619 16.659-61.858-51.528 0.0755z" style="fill:#e6e6e6;paint-order:normal;stroke-linecap:square;stroke-width:6.7127;stroke:#000"/>
  </g>
 </g>
</svg>
